<?xml version="1.0" encoding="UTF-8"?>
<svg width="200" height="200" shape-rendering="crispEdges" version="1.1" xmlns="http://www.w3.org/2000/svg">
        <desc>Scan this QR-Code with your authentcator app</desc>
        <rect width="200" height="200" fill="#FFF"/>
        <path d="M18 18h4v4H18V18M22 18h4v4H22V18M26 18h4v4H26V18M30 18h4v4H30V18M34 18h4v4H34V18M38 18h4v4H38V18M42 18h4v4H42V18M58 18h4v4H58V18M62 18h4v4H62V18M70 18h4v4H70V18M78 18h4v4H78V18M82 18h4v4H82V18M86 18h4v4H86V18M90 18h4v4H90V18M94 18h4v4H94V18M98 18h4v4H98V18M110 18h4v4H110V18M130 18h4v4H130V18M142 18h4v4H142V18M146 18h4v4H146V18M154 18h4v4H154V18M158 18h4v4H158V18M162 18h4v4H162V18M166 18h4v4H166V18M170 18h4v4H170V18M174 18h4v4H174V18M178 18h4v4H178V18M18 22h4v4H18V22M42 22h4v4H42V22M50 22h4v4H50V22M66 22h4v4H66V22M70 22h4v4H70V22M74 22h4v4H74V22M78 22h4v4H78V22M82 22h4v4H82V22M86 22h4v4H86V22M102 22h4v4H102V22M106 22h4v4H106V22M114 22h4v4H114V22M126 22h4v4H126V22M134 22h4v4H134V22M138 22h4v4H138V22M146 22h4v4H146V22M154 22h4v4H154V22M178 22h4v4H178V22M18 26h4v4H18V26M26 26h4v4H26V26M30 26h4v4H30V26M34 26h4v4H34V26M42 26h4v4H42V26M54 26h4v4H54V26M66 26h4v4H66V26M70 26h4v4H70V26M78 26h4v4H78V26M86 26h4v4H86V26M90 26h4v4H90V26M94 26h4v4H94V26M102 26h4v4H102V26M106 26h4v4H106V26M122 26h4v4H122V26M130 26h4v4H130V26M142 26h4v4H142V26M154 26h4v4H154V26M162 26h4v4H162V26M166 26h4v4H166V26M170 26h4v4H170V26M178 26h4v4H178V26M18 30h4v4H18V30M26 30h4v4H26V30M30 30h4v4H30V30M34 30h4v4H34V30M42 30h4v4H42V30M50 30h4v4H50V30M58 30h4v4H58V30M66 30h4v4H66V30M74 30h4v4H74V30M78 30h4v4H78V30M82 30h4v4H82V30M98 30h4v4H98V30M110 30h4v4H110V30M118 30h4v4H118V30M122 30h4v4H122V30M134 30h4v4H134V30M146 30h4v4H146V30M154 30h4v4H154V30M162 30h4v4H162V30M166 30h4v4H166V30M170 30h4v4H170V30M178 30h4v4H178V30M18 34h4v4H18V34M26 34h4v4H26V34M30 34h4v4H30V34M34 34h4v4H34V34M42 34h4v4H42V34M54 34h4v4H54V34M62 34h4v4H62V34M78 34h4v4H78V34M90 34h4v4H90V34M102 34h4v4H102V34M106 34h4v4H106V34M110 34h4v4H110V34M114 34h4v4H114V34M122 34h4v4H122V34M126 34h4v4H126V34M130 34h4v4H130V34M142 34h4v4H142V34M146 34h4v4H146V34M154 34h4v4H154V34M162 34h4v4H162V34M166 34h4v4H166V34M170 34h4v4H170V34M178 34h4v4H178V34M18 38h4v4H18V38M42 38h4v4H42V38M50 38h4v4H50V38M54 38h4v4H54V38M58 38h4v4H58V38M62 38h4v4H62V38M66 38h4v4H66V38M74 38h4v4H74V38M78 38h4v4H78V38M82 38h4v4H82V38M98 38h4v4H98V38M102 38h4v4H102V38M106 38h4v4H106V38M122 38h4v4H122V38M126 38h4v4H126V38M146 38h4v4H146V38M154 38h4v4H154V38M178 38h4v4H178V38M18 42h4v4H18V42M22 42h4v4H22V42M26 42h4v4H26V42M30 42h4v4H30V42M34 42h4v4H34V42M38 42h4v4H38V42M42 42h4v4H42V42M50 42h4v4H50V42M58 42h4v4H58V42M66 42h4v4H66V42M74 42h4v4H74V42M82 42h4v4H82V42M90 42h4v4H90V42M98 42h4v4H98V42M106 42h4v4H106V42M114 42h4v4H114V42M122 42h4v4H122V42M130 42h4v4H130V42M138 42h4v4H138V42M146 42h4v4H146V42M154 42h4v4H154V42M158 42h4v4H158V42M162 42h4v4H162V42M166 42h4v4H166V42M170 42h4v4H170V42M174 42h4v4H174V42M178 42h4v4H178V42M58 46h4v4H58V46M78 46h4v4H78V46M102 46h4v4H102V46M106 46h4v4H106V46M110 46h4v4H110V46M114 46h4v4H114V46M126 46h4v4H126V46M130 46h4v4H130V46M138 46h4v4H138V46M18 50h4v4H18V50M22 50h4v4H22V50M26 50h4v4H26V50M30 50h4v4H30V50M34 50h4v4H34V50M42 50h4v4H42V50M46 50h4v4H46V50M50 50h4v4H50V50M54 50h4v4H54V50M58 50h4v4H58V50M62 50h4v4H62V50M74 50h4v4H74V50M78 50h4v4H78V50M82 50h4v4H82V50M86 50h4v4H86V50M98 50h4v4H98V50M114 50h4v4H114V50M118 50h4v4H118V50M122 50h4v4H122V50M126 50h4v4H126V50M142 50h4v4H142V50M146 50h4v4H146V50M150 50h4v4H150V50M158 50h4v4H158V50M166 50h4v4H166V50M174 50h4v4H174V50M22 54h4v4H22V54M26 54h4v4H26V54M30 54h4v4H30V54M38 54h4v4H38V54M46 54h4v4H46V54M50 54h4v4H50V54M62 54h4v4H62V54M78 54h4v4H78V54M82 54h4v4H82V54M94 54h4v4H94V54M98 54h4v4H98V54M102 54h4v4H102V54M110 54h4v4H110V54M138 54h4v4H138V54M142 54h4v4H142V54M146 54h4v4H146V54M154 54h4v4H154V54M158 54h4v4H158V54M162 54h4v4H162V54M34 58h4v4H34V58M42 58h4v4H42V58M54 58h4v4H54V58M62 58h4v4H62V58M78 58h4v4H78V58M82 58h4v4H82V58M90 58h4v4H90V58M98 58h4v4H98V58M106 58h4v4H106V58M114 58h4v4H114V58M126 58h4v4H126V58M134 58h4v4H134V58M138 58h4v4H138V58M146 58h4v4H146V58M154 58h4v4H154V58M158 58h4v4H158V58M18 62h4v4H18V62M22 62h4v4H22V62M26 62h4v4H26V62M30 62h4v4H30V62M46 62h4v4H46V62M50 62h4v4H50V62M58 62h4v4H58V62M74 62h4v4H74V62M78 62h4v4H78V62M94 62h4v4H94V62M102 62h4v4H102V62M114 62h4v4H114V62M130 62h4v4H130V62M146 62h4v4H146V62M150 62h4v4H150V62M158 62h4v4H158V62M166 62h4v4H166V62M178 62h4v4H178V62M26 66h4v4H26V66M34 66h4v4H34V66M38 66h4v4H38V66M42 66h4v4H42V66M46 66h4v4H46V66M62 66h4v4H62V66M66 66h4v4H66V66M90 66h4v4H90V66M102 66h4v4H102V66M118 66h4v4H118V66M122 66h4v4H122V66M130 66h4v4H130V66M134 66h4v4H134V66M162 66h4v4H162V66M170 66h4v4H170V66M178 66h4v4H178V66M18 70h4v4H18V70M22 70h4v4H22V70M30 70h4v4H30V70M34 70h4v4H34V70M38 70h4v4H38V70M50 70h4v4H50V70M54 70h4v4H54V70M74 70h4v4H74V70M78 70h4v4H78V70M82 70h4v4H82V70M98 70h4v4H98V70M110 70h4v4H110V70M118 70h4v4H118V70M122 70h4v4H122V70M130 70h4v4H130V70M142 70h4v4H142V70M146 70h4v4H146V70M150 70h4v4H150V70M158 70h4v4H158V70M162 70h4v4H162V70M170 70h4v4H170V70M178 70h4v4H178V70M22 74h4v4H22V74M26 74h4v4H26V74M34 74h4v4H34V74M42 74h4v4H42V74M46 74h4v4H46V74M50 74h4v4H50V74M54 74h4v4H54V74M58 74h4v4H58V74M62 74h4v4H62V74M66 74h4v4H66V74M70 74h4v4H70V74M94 74h4v4H94V74M106 74h4v4H106V74M114 74h4v4H114V74M118 74h4v4H118V74M122 74h4v4H122V74M126 74h4v4H126V74M130 74h4v4H130V74M138 74h4v4H138V74M158 74h4v4H158V74M166 74h4v4H166V74M18 78h4v4H18V78M22 78h4v4H22V78M26 78h4v4H26V78M38 78h4v4H38V78M50 78h4v4H50V78M54 78h4v4H54V78M62 78h4v4H62V78M74 78h4v4H74V78M82 78h4v4H82V78M90 78h4v4H90V78M94 78h4v4H94V78M98 78h4v4H98V78M102 78h4v4H102V78M122 78h4v4H122V78M142 78h4v4H142V78M146 78h4v4H146V78M150 78h4v4H150V78M158 78h4v4H158V78M162 78h4v4H162V78M166 78h4v4H166V78M174 78h4v4H174V78M26 82h4v4H26V82M30 82h4v4H30V82M42 82h4v4H42V82M46 82h4v4H46V82M50 82h4v4H50V82M54 82h4v4H54V82M58 82h4v4H58V82M62 82h4v4H62V82M70 82h4v4H70V82M86 82h4v4H86V82M90 82h4v4H90V82M94 82h4v4H94V82M106 82h4v4H106V82M118 82h4v4H118V82M122 82h4v4H122V82M126 82h4v4H126V82M134 82h4v4H134V82M166 82h4v4H166V82M30 86h4v4H30V86M34 86h4v4H34V86M38 86h4v4H38V86M46 86h4v4H46V86M50 86h4v4H50V86M54 86h4v4H54V86M58 86h4v4H58V86M70 86h4v4H70V86M74 86h4v4H74V86M78 86h4v4H78V86M82 86h4v4H82V86M86 86h4v4H86V86M94 86h4v4H94V86M98 86h4v4H98V86M110 86h4v4H110V86M130 86h4v4H130V86M142 86h4v4H142V86M146 86h4v4H146V86M150 86h4v4H150V86M154 86h4v4H154V86M162 86h4v4H162V86M174 86h4v4H174V86M26 90h4v4H26V90M38 90h4v4H38V90M42 90h4v4H42V90M70 90h4v4H70V90M74 90h4v4H74V90M78 90h4v4H78V90M86 90h4v4H86V90M98 90h4v4H98V90M106 90h4v4H106V90M126 90h4v4H126V90M154 90h4v4H154V90M158 90h4v4H158V90M166 90h4v4H166V90M18 94h4v4H18V94M26 94h4v4H26V94M30 94h4v4H30V94M50 94h4v4H50V94M66 94h4v4H66V94M70 94h4v4H70V94M78 94h4v4H78V94M86 94h4v4H86V94M90 94h4v4H90V94M98 94h4v4H98V94M126 94h4v4H126V94M146 94h4v4H146V94M150 94h4v4H150V94M154 94h4v4H154V94M158 94h4v4H158V94M166 94h4v4H166V94M178 94h4v4H178V94M18 98h4v4H18V98M22 98h4v4H22V98M42 98h4v4H42V98M46 98h4v4H46V98M74 98h4v4H74V98M78 98h4v4H78V98M82 98h4v4H82V98M98 98h4v4H98V98M102 98h4v4H102V98M106 98h4v4H106V98M110 98h4v4H110V98M118 98h4v4H118V98M130 98h4v4H130V98M134 98h4v4H134V98M150 98h4v4H150V98M162 98h4v4H162V98M166 98h4v4H166V98M170 98h4v4H170V98M178 98h4v4H178V98M22 102h4v4H22V102M26 102h4v4H26V102M30 102h4v4H30V102M34 102h4v4H34V102M46 102h4v4H46V102M50 102h4v4H50V102M66 102h4v4H66V102M78 102h4v4H78V102M86 102h4v4H86V102M90 102h4v4H90V102M110 102h4v4H110V102M130 102h4v4H130V102M138 102h4v4H138V102M142 102h4v4H142V102M154 102h4v4H154V102M158 102h4v4H158V102M162 102h4v4H162V102M170 102h4v4H170V102M178 102h4v4H178V102M22 106h4v4H22V106M30 106h4v4H30V106M38 106h4v4H38V106M42 106h4v4H42V106M54 106h4v4H54V106M58 106h4v4H58V106M74 106h4v4H74V106M78 106h4v4H78V106M82 106h4v4H82V106M98 106h4v4H98V106M106 106h4v4H106V106M122 106h4v4H122V106M126 106h4v4H126V106M130 106h4v4H130V106M138 106h4v4H138V106M146 106h4v4H146V106M154 106h4v4H154V106M158 106h4v4H158V106M162 106h4v4H162V106M166 106h4v4H166V106M18 110h4v4H18V110M26 110h4v4H26V110M30 110h4v4H30V110M34 110h4v4H34V110M38 110h4v4H38V110M46 110h4v4H46V110M54 110h4v4H54V110M58 110h4v4H58V110M66 110h4v4H66V110M78 110h4v4H78V110M102 110h4v4H102V110M106 110h4v4H106V110M114 110h4v4H114V110M122 110h4v4H122V110M126 110h4v4H126V110M130 110h4v4H130V110M138 110h4v4H138V110M142 110h4v4H142V110M154 110h4v4H154V110M158 110h4v4H158V110M166 110h4v4H166V110M178 110h4v4H178V110M30 114h4v4H30V114M34 114h4v4H34V114M42 114h4v4H42V114M50 114h4v4H50V114M54 114h4v4H54V114M66 114h4v4H66V114M70 114h4v4H70V114M78 114h4v4H78V114M82 114h4v4H82V114M106 114h4v4H106V114M110 114h4v4H110V114M114 114h4v4H114V114M122 114h4v4H122V114M126 114h4v4H126V114M134 114h4v4H134V114M146 114h4v4H146V114M178 114h4v4H178V114M22 118h4v4H22V118M26 118h4v4H26V118M38 118h4v4H38V118M58 118h4v4H58V118M74 118h4v4H74V118M78 118h4v4H78V118M82 118h4v4H82V118M94 118h4v4H94V118M98 118h4v4H98V118M102 118h4v4H102V118M106 118h4v4H106V118M110 118h4v4H110V118M130 118h4v4H130V118M146 118h4v4H146V118M154 118h4v4H154V118M162 118h4v4H162V118M166 118h4v4H166V118M174 118h4v4H174V118M18 122h4v4H18V122M26 122h4v4H26V122M30 122h4v4H30V122M34 122h4v4H34V122M42 122h4v4H42V122M50 122h4v4H50V122M58 122h4v4H58V122M66 122h4v4H66V122M78 122h4v4H78V122M82 122h4v4H82V122M90 122h4v4H90V122M98 122h4v4H98V122M102 122h4v4H102V122M118 122h4v4H118V122M122 122h4v4H122V122M126 122h4v4H126V122M130 122h4v4H130V122M146 122h4v4H146V122M150 122h4v4H150V122M166 122h4v4H166V122M18 126h4v4H18V126M26 126h4v4H26V126M38 126h4v4H38V126M50 126h4v4H50V126M54 126h4v4H54V126M58 126h4v4H58V126M66 126h4v4H66V126M74 126h4v4H74V126M78 126h4v4H78V126M82 126h4v4H82V126M94 126h4v4H94V126M102 126h4v4H102V126M106 126h4v4H106V126M114 126h4v4H114V126M130 126h4v4H130V126M142 126h4v4H142V126M146 126h4v4H146V126M154 126h4v4H154V126M166 126h4v4H166V126M174 126h4v4H174V126M178 126h4v4H178V126M18 130h4v4H18V130M38 130h4v4H38V130M42 130h4v4H42V130M66 130h4v4H66V130M90 130h4v4H90V130M102 130h4v4H102V130M114 130h4v4H114V130M118 130h4v4H118V130M122 130h4v4H122V130M134 130h4v4H134V130M142 130h4v4H142V130M146 130h4v4H146V130M162 130h4v4H162V130M166 130h4v4H166V130M170 130h4v4H170V130M18 134h4v4H18V134M30 134h4v4H30V134M38 134h4v4H38V134M46 134h4v4H46V134M50 134h4v4H50V134M54 134h4v4H54V134M58 134h4v4H58V134M74 134h4v4H74V134M78 134h4v4H78V134M82 134h4v4H82V134M86 134h4v4H86V134M98 134h4v4H98V134M102 134h4v4H102V134M106 134h4v4H106V134M110 134h4v4H110V134M130 134h4v4H130V134M142 134h4v4H142V134M158 134h4v4H158V134M162 134h4v4H162V134M170 134h4v4H170V134M174 134h4v4H174V134M178 134h4v4H178V134M18 138h4v4H18V138M34 138h4v4H34V138M42 138h4v4H42V138M46 138h4v4H46V138M58 138h4v4H58V138M62 138h4v4H62V138M66 138h4v4H66V138M70 138h4v4H70V138M74 138h4v4H74V138M90 138h4v4H90V138M94 138h4v4H94V138M126 138h4v4H126V138M138 138h4v4H138V138M158 138h4v4H158V138M166 138h4v4H166V138M18 142h4v4H18V142M26 142h4v4H26V142M34 142h4v4H34V142M46 142h4v4H46V142M62 142h4v4H62V142M82 142h4v4H82V142M90 142h4v4H90V142M94 142h4v4H94V142M98 142h4v4H98V142M102 142h4v4H102V142M110 142h4v4H110V142M126 142h4v4H126V142M130 142h4v4H130V142M138 142h4v4H138V142M142 142h4v4H142V142M150 142h4v4H150V142M162 142h4v4H162V142M178 142h4v4H178V142M18 146h4v4H18V146M26 146h4v4H26V146M34 146h4v4H34V146M38 146h4v4H38V146M42 146h4v4H42V146M50 146h4v4H50V146M54 146h4v4H54V146M62 146h4v4H62V146M70 146h4v4H70V146M94 146h4v4H94V146M98 146h4v4H98V146M106 146h4v4H106V146M114 146h4v4H114V146M118 146h4v4H118V146M122 146h4v4H122V146M126 146h4v4H126V146M134 146h4v4H134V146M138 146h4v4H138V146M146 146h4v4H146V146M150 146h4v4H150V146M154 146h4v4H154V146M158 146h4v4H158V146M162 146h4v4H162V146M166 146h4v4H166V146M170 146h4v4H170V146M174 146h4v4H174V146M178 146h4v4H178V146M50 150h4v4H50V150M54 150h4v4H54V150M70 150h4v4H70V150M74 150h4v4H74V150M78 150h4v4H78V150M82 150h4v4H82V150M86 150h4v4H86V150M94 150h4v4H94V150M98 150h4v4H98V150M110 150h4v4H110V150M130 150h4v4H130V150M146 150h4v4H146V150M162 150h4v4H162V150M166 150h4v4H166V150M174 150h4v4H174V150M18 154h4v4H18V154M22 154h4v4H22V154M26 154h4v4H26V154M30 154h4v4H30V154M34 154h4v4H34V154M38 154h4v4H38V154M42 154h4v4H42V154M50 154h4v4H50V154M54 154h4v4H54V154M66 154h4v4H66V154M70 154h4v4H70V154M74 154h4v4H74V154M78 154h4v4H78V154M86 154h4v4H86V154M98 154h4v4H98V154M106 154h4v4H106V154M114 154h4v4H114V154M122 154h4v4H122V154M126 154h4v4H126V154M134 154h4v4H134V154M138 154h4v4H138V154M142 154h4v4H142V154M146 154h4v4H146V154M154 154h4v4H154V154M162 154h4v4H162V154M18 158h4v4H18V158M42 158h4v4H42V158M54 158h4v4H54V158M58 158h4v4H58V158M66 158h4v4H66V158M70 158h4v4H70V158M86 158h4v4H86V158M90 158h4v4H90V158M94 158h4v4H94V158M98 158h4v4H98V158M114 158h4v4H114V158M138 158h4v4H138V158M146 158h4v4H146V158M162 158h4v4H162V158M166 158h4v4H166V158M174 158h4v4H174V158M18 162h4v4H18V162M26 162h4v4H26V162M30 162h4v4H30V162M34 162h4v4H34V162M42 162h4v4H42V162M50 162h4v4H50V162M54 162h4v4H54V162M58 162h4v4H58V162M62 162h4v4H62V162M74 162h4v4H74V162M78 162h4v4H78V162M82 162h4v4H82V162M94 162h4v4H94V162M98 162h4v4H98V162M102 162h4v4H102V162M106 162h4v4H106V162M110 162h4v4H110V162M114 162h4v4H114V162M118 162h4v4H118V162M122 162h4v4H122V162M130 162h4v4H130V162M134 162h4v4H134V162M138 162h4v4H138V162M146 162h4v4H146V162M150 162h4v4H150V162M154 162h4v4H154V162M158 162h4v4H158V162M162 162h4v4H162V162M170 162h4v4H170V162M18 166h4v4H18V166M26 166h4v4H26V166M30 166h4v4H30V166M34 166h4v4H34V166M42 166h4v4H42V166M50 166h4v4H50V166M54 166h4v4H54V166M66 166h4v4H66V166M78 166h4v4H78V166M90 166h4v4H90V166M102 166h4v4H102V166M110 166h4v4H110V166M126 166h4v4H126V166M130 166h4v4H130V166M134 166h4v4H134V166M158 166h4v4H158V166M166 166h4v4H166V166M174 166h4v4H174V166M178 166h4v4H178V166M18 170h4v4H18V170M26 170h4v4H26V170M30 170h4v4H30V170M34 170h4v4H34V170M42 170h4v4H42V170M50 170h4v4H50V170M58 170h4v4H58V170M70 170h4v4H70V170M74 170h4v4H74V170M78 170h4v4H78V170M82 170h4v4H82V170M90 170h4v4H90V170M98 170h4v4H98V170M106 170h4v4H106V170M122 170h4v4H122V170M126 170h4v4H126V170M130 170h4v4H130V170M134 170h4v4H134V170M138 170h4v4H138V170M154 170h4v4H154V170M162 170h4v4H162V170M166 170h4v4H166V170M170 170h4v4H170V170M18 174h4v4H18V174M42 174h4v4H42V174M50 174h4v4H50V174M66 174h4v4H66V174M78 174h4v4H78V174M90 174h4v4H90V174M102 174h4v4H102V174M106 174h4v4H106V174M114 174h4v4H114V174M122 174h4v4H122V174M126 174h4v4H126V174M130 174h4v4H130V174M138 174h4v4H138V174M142 174h4v4H142V174M146 174h4v4H146V174M150 174h4v4H150V174M162 174h4v4H162V174M166 174h4v4H166V174M174 174h4v4H174V174M18 178h4v4H18V178M22 178h4v4H22V178M26 178h4v4H26V178M30 178h4v4H30V178M34 178h4v4H34V178M38 178h4v4H38V178M42 178h4v4H42V178M50 178h4v4H50V178M54 178h4v4H54V178M74 178h4v4H74V178M78 178h4v4H78V178M82 178h4v4H82V178M98 178h4v4H98V178M110 178h4v4H110V178M118 178h4v4H118V178M122 178h4v4H122V178M134 178h4v4H134V178M150 178h4v4H150V178M154 178h4v4H154V178"/>
</svg>